<svg width="22" height="22" viewBox="0 0 22 22" fill="none" xmlns="http://www.w3.org/2000/svg">
<path d="M10.2704 12.3329L17.8329 4.77038C17.9288 4.67445 18.0427 4.59836 18.168 4.54645C18.2934 4.49453 18.4277 4.46781 18.5634 4.46781C18.699 4.46781 18.8333 4.49453 18.9587 4.54645C19.084 4.59836 19.1979 4.67445 19.2938 4.77038C19.3897 4.86631 19.4658 4.98019 19.5178 5.10552C19.5697 5.23086 19.5964 5.36519 19.5964 5.50085C19.5964 5.63651 19.5697 5.77084 19.5178 5.89618C19.4658 6.02151 19.3897 6.13539 19.2938 6.23132L11.7313 13.7938C11.6354 13.8897 11.5215 13.9658 11.3962 14.0178C11.2708 14.0697 11.1365 14.0964 11.0009 14.0964C10.8652 14.0964 10.7309 14.0697 10.6055 14.0178C10.4802 13.9658 10.3663 13.8897 10.2704 13.7938C10.1745 13.6979 10.0984 13.584 10.0464 13.4587C9.99453 13.3333 9.96781 13.199 9.96781 13.0633C9.96781 12.9277 9.99453 12.7934 10.0464 12.668C10.0984 12.5427 10.1745 12.4288 10.2704 12.3329ZM20.2194 9.26491C20.1146 9.01203 19.9137 8.81112 19.6609 8.70636C19.408 8.6016 19.1239 8.60159 18.871 8.70632C18.6181 8.81105 18.4172 9.01194 18.3125 9.26481C18.2077 9.51768 18.2077 9.8018 18.3124 10.0547C19.0183 11.7777 19.0968 13.6938 18.5341 15.4687H3.46671C3.0924 14.2833 3.00218 13.0264 3.20334 11.7997C3.4045 10.5729 3.89139 9.41068 4.62469 8.40686C5.35798 7.40303 6.31711 6.58577 7.4246 6.02109C8.53208 5.45641 9.75686 5.16015 11 5.15624H11.0722C12.0809 5.16362 13.0788 5.36523 14.0112 5.75007C14.2635 5.85086 14.5453 5.84806 14.7955 5.7423C15.0456 5.63654 15.244 5.43635 15.3474 5.1852C15.4509 4.93405 15.4511 4.65223 15.348 4.40095C15.2448 4.14967 15.0468 3.94921 14.7967 3.84312C13.017 3.11192 11.0639 2.91103 9.17265 3.26465C7.2814 3.61828 5.53279 4.51133 4.13756 5.83616C2.74233 7.161 1.76004 8.86108 1.30906 10.7315C0.85809 12.6019 0.957688 14.5629 1.59585 16.378C1.71423 16.7143 1.93384 17.0057 2.22451 17.2122C2.51518 17.4187 2.86266 17.5302 3.21921 17.5312H18.7799C19.136 17.5306 19.4832 17.4197 19.7737 17.2139C20.0642 17.008 20.2838 16.7172 20.4024 16.3814C21.2161 14.067 21.151 11.5344 20.2194 9.26491Z" fill="#A6C6F8"/>
</svg>
