<svg width="28" height="28" viewBox="0 0 28 28" fill="none" xmlns="http://www.w3.org/2000/svg">
<path d="M19.25 1.75H8.75C8.05381 1.75 7.38613 2.02656 6.89384 2.51884C6.40156 3.01113 6.125 3.67881 6.125 4.375V23.625C6.125 24.3212 6.40156 24.9889 6.89384 25.4812C7.38613 25.9734 8.05381 26.25 8.75 26.25H19.25C19.9462 26.25 20.6139 25.9734 21.1062 25.4812C21.5984 24.9889 21.875 24.3212 21.875 23.625V4.375C21.875 3.67881 21.5984 3.01113 21.1062 2.51884C20.6139 2.02656 19.9462 1.75 19.25 1.75ZM7.875 7H20.125V21H7.875V7ZM8.75 3.5H19.25C19.4821 3.5 19.7046 3.59219 19.8687 3.75628C20.0328 3.92038 20.125 4.14294 20.125 4.375V5.25H7.875V4.375C7.875 4.14294 7.96719 3.92038 8.13128 3.75628C8.29538 3.59219 8.51794 3.5 8.75 3.5ZM19.25 24.5H8.75C8.51794 24.5 8.29538 24.4078 8.13128 24.2437C7.96719 24.0796 7.875 23.8571 7.875 23.625V22.75H20.125V23.625C20.125 23.8571 20.0328 24.0796 19.8687 24.2437C19.7046 24.4078 19.4821 24.5 19.25 24.5Z" fill="#D3E3FD"/>
<path d="M13.5333 18.6667L16.3333 13.0667H14.4667V9.33334L11.6667 14.9333H13.5333V18.6667Z" fill="#D3E3FD"/>
</svg>
