<svg width="28" height="28" viewBox="0 0 28 28" fill="none" xmlns="http://www.w3.org/2000/svg">
<path d="M14.7778 3V5.22223H4.22222V22.7778H19.7778V15.2222H22V23.8889C22 24.1836 21.8829 24.4662 21.6746 24.6746C21.4662 24.8829 21.1836 25 20.8889 25H3.11111C2.81643 25 2.53381 24.8829 2.32544 24.6746C2.11706 24.4662 2 24.1836 2 23.8889V4.11111C2 3.81643 2.11706 3.53381 2.32544 3.32544C2.53381 3.11707 2.81643 3 3.11111 3H14.7778Z" fill="#D3E3FD"/>
<path d="M15.4004 9.59961V11.25H13.3389C13.4999 11.5144 13.6215 11.8006 13.7012 12.0996H15.4004V13.75H13.6992C13.5191 14.4365 13.1237 15.0506 12.5635 15.5C12.0354 15.9235 11.3917 16.1792 10.7178 16.2373L10.4277 16.25H10.2256L14.0439 20H11.6729L11.6152 19.9424L8 16.3926V14.5996H10.4268C10.7798 14.5989 11.124 14.4904 11.4111 14.29C11.6158 14.1472 11.7833 13.962 11.9053 13.75H8V12.0996H11.9043C11.6113 11.5937 11.0625 11.2501 10.4277 11.25H8V9.59961H15.4004Z" fill="#D3E3FD"/>
<path d="M17.5822 8.44253L19.7711 6.25364L19.7711 12.2531H21.993L21.993 6.25364L24.1818 8.44253L25.7532 6.87118L20.882 2L16.0108 6.87118L17.5822 8.44253Z" fill="#D3E3FD"/>
</svg>
