<svg width="36" height="36" viewBox="0 0 36 36" fill="none" xmlns="http://www.w3.org/2000/svg">
<path d="M20 3.83887H3.5C3.22391 3.83887 3.00008 4.06279 3 4.33887V31.8389C3.00009 32.1149 3.22391 32.3389 3.5 32.3389H27C27.2761 32.3389 27.4999 32.1149 27.5 31.8389V18.8389H30.5V31.8389C30.4999 33.7718 28.9329 35.3389 27 35.3389H3.5C1.56706 35.3389 8.65849e-05 33.7718 0 31.8389V4.33887C8.2462e-05 2.40594 1.56705 0.838867 3.5 0.838867H20V3.83887Z" fill="white"/>
<path d="M22.5 9.33887L21.8516 11.4912L18.7344 11.4668C18.9027 11.675 19.0539 11.8952 19.1836 12.1309C19.4776 12.6543 19.6809 13.2208 19.7959 13.8291H22.5L21.8516 15.9814H19.835C19.7377 16.6136 19.5414 17.2112 19.2402 17.7725C18.8019 18.5947 18.0967 19.256 17.125 19.7568C16.1592 20.2578 14.8814 20.5088 13.293 20.5088H13.2363L19.6787 28.1904V28.3389H16.7051L9.72852 20.0264L9.69043 18.4678H13.1602C14.0621 18.4677 14.8306 18.3439 15.4658 18.0967C16.1012 17.8431 16.588 17.4658 16.9248 16.9648C17.1148 16.6786 17.2493 16.3504 17.332 15.9814H9.5L10.1484 13.8291H17.2656C17.0987 13.2602 16.8042 12.7802 16.3809 12.3906C15.7521 11.8067 14.8201 11.4864 13.585 11.4277L12.1309 11.417H9.5L10.1484 9.33887H22.5Z" fill="white"/>
<path d="M32.8682 4.14746L32.917 4.19531L32.96 4.24805L35.1523 6.87891L32.8477 8.79883L30.6992 6.2207L28.8936 4.41504L25.1406 8.8125L22.8594 6.86426L28.7207 0L32.8682 4.14746Z" fill="white"/>
</svg>
