<svg width="28" height="28" viewBox="0 0 28 28" fill="none" xmlns="http://www.w3.org/2000/svg">
<path d="M2.33334 8.16668V2.33334H8.16668V4.66668H4.66668V8.16668H2.33334ZM2.33334 25.6667V19.8333H4.66668V23.3333H8.16668V25.6667H2.33334ZM19.8333 25.6667V23.3333H23.3333V19.8333H25.6667V25.6667H19.8333ZM23.3333 8.16668V4.66668H19.8333V2.33334H25.6667V8.16668H23.3333ZM20.4167 20.4167H22.1667V22.1667H20.4167V20.4167ZM20.4167 16.9167H22.1667V18.6667H20.4167V16.9167ZM18.6667 18.6667H20.4167V20.4167H18.6667V18.6667ZM16.9167 20.4167H18.6667V22.1667H16.9167V20.4167ZM15.1667 18.6667H16.9167V20.4167H15.1667V18.6667ZM18.6667 15.1667H20.4167V16.9167H18.6667V15.1667ZM16.9167 16.9167H18.6667V18.6667H16.9167V16.9167ZM15.1667 15.1667H16.9167V16.9167H15.1667V15.1667ZM22.1667 5.83334V12.8333H15.1667V5.83334H22.1667ZM12.8333 15.1667V22.1667H5.83334V15.1667H12.8333ZM12.8333 5.83334V12.8333H5.83334V5.83334H12.8333ZM11.0833 20.4167V16.9167H7.58334V20.4167H11.0833ZM11.0833 11.0833V7.58334H7.58334V11.0833H11.0833ZM20.4167 11.0833V7.58334H16.9167V11.0833H20.4167Z" fill="#D3E3FD"/>
</svg>
