<svg width="36" height="36" viewBox="0 0 36 36" fill="none" xmlns="http://www.w3.org/2000/svg">
<path d="M19 19H22V22H19V19Z" fill="white"/>
<path d="M19 25H22V28H19V25Z" fill="white"/>
<path d="M25 25H28V28H25V25Z" fill="white"/>
<path d="M22 22H25V25H22V22Z" fill="white"/>
<path d="M25 19H28V22H25V19Z" fill="white"/>
<path d="M28 22H31V25H28V22Z" fill="white"/>
<path d="M28 28H31V31H28V28Z" fill="white"/>
<path d="M22 28H25V31H22V28Z" fill="white"/>
<path d="M17 17H5V5H17V17ZM7.22222 7.22222V14.7778H14.7778V7.22222H7.22222Z" fill="white"/>
<path d="M17 31H5V19H17V31ZM7.22222 21.2222V28.7778H14.7778V21.2222H7.22222Z" fill="white"/>
<path d="M31 17H19V5H31V17ZM21.2222 7.22222V14.7778H28.7778V7.22222H21.2222Z" fill="white"/>
<path d="M12 3H3V12H0V0H12V3Z" fill="white"/>
<path d="M24 3H33V12H36V0H24V3Z" fill="white"/>
<path d="M24 33H33V24H36V36H24V33Z" fill="white"/>
<path d="M12 33H3V24H0V36H12V33Z" fill="white"/>
</svg>
