<svg width="22" height="22" viewBox="0 0 22 22" fill="none" xmlns="http://www.w3.org/2000/svg">
<g clip-path="url(#clip0_51_401)">
<path d="M12.5 2C7.53 2 3.5 6.03 3.5 11H0.5L4.39 14.89L4.46 15.03L8.5 11H5.5C5.5 7.13 8.63 4 12.5 4C16.37 4 19.5 7.13 19.5 11C19.5 14.87 16.37 18 12.5 18C10.57 18 8.82 17.21 7.56 15.94L6.14 17.36C7.77 18.99 10.01 20 12.5 20C17.47 20 21.5 15.97 21.5 11C21.5 6.03 17.47 2 12.5 2ZM11.5 7V12L15.78 14.54L16.5 13.33L13 11.25V7H11.5Z" fill="#A6C6F8"/>
</g>
<defs>
<clipPath id="clip0_51_401">
<rect width="22" height="22" fill="white"/>
</clipPath>
</defs>
</svg>
