<svg width="24" height="24" viewBox="0 0 24 24" fill="none" xmlns="http://www.w3.org/2000/svg">
<path fill-rule="evenodd" clip-rule="evenodd" d="M7.287 3.712C7.479 3.904 7.71667 4 8 4H16C16.2833 4 16.5207 3.904 16.712 3.712C16.904 3.52067 17 3.28333 17 3C17 2.71667 16.904 2.479 16.712 2.287C16.5207 2.09567 16.2833 2 16 2H8C7.71667 2 7.479 2.09567 7.287 2.287C7.09567 2.479 7 2.71667 7 3C7 3.28333 7.09567 3.52067 7.287 3.712ZM4.287 6.713C4.479 6.90433 4.71667 7 5 7H19C19.2833 7 19.5207 6.90433 19.712 6.713C19.904 6.521 20 6.28333 20 6C20 5.71667 19.904 5.479 19.712 5.287C19.5207 5.09567 19.2833 5 19 5H5C4.71667 5 4.479 5.09567 4.287 5.287C4.09567 5.479 4 5.71667 4 6C4 6.28333 4.09567 6.521 4.287 6.713Z" fill="#A6C6F8"/>
<path d="M11.55 17.975L14.75 15.825C15.05 15.625 15.2 15.35 15.2 15C15.2 14.65 15.05 14.375 14.75 14.175L11.55 12.025C11.2167 11.7917 10.875 11.775 10.525 11.975C10.175 12.175 10 12.475 10 12.875V17.125C10 17.525 10.175 17.825 10.525 18.025C10.875 18.225 11.2167 18.2083 11.55 17.975Z" fill="#A6C6F8"/>
<path d="M20 20.5V22H4V20.5H20ZM20.5 20V10C20.5 9.85137 20.4649 9.76058 20.3535 9.64844L20.2715 9.57812C20.1912 9.52034 20.1122 9.5 20 9.5H4C3.85061 9.5 3.76044 9.53546 3.64844 9.64746C3.53524 9.76067 3.5 9.85137 3.5 10V20C3.5 20.1486 3.53524 20.2393 3.64844 20.3525C3.76044 20.4645 3.85061 20.5 4 20.5V22C3.51875 22 3.09805 21.8504 2.73828 21.5508L2.58789 21.4131C2.1959 21.0211 2 20.55 2 20V10C2 9.45001 2.1959 8.97891 2.58789 8.58691C2.97922 8.19558 3.45 8 4 8H20C20.55 8 21.0211 8.19558 21.4131 8.58691C21.8044 8.97891 22 9.45 22 10V20C22 20.55 21.8044 21.0211 21.4131 21.4131L21.2627 21.5508C20.9024 21.8505 20.4813 22 20 22V20.5C20.1495 20.5 20.2405 20.4644 20.3535 20.3516C20.4649 20.2394 20.5 20.1486 20.5 20Z" fill="#A6C6F8"/>
</svg>
