<svg width="59" height="59" viewBox="0 0 59 59" fill="none" xmlns="http://www.w3.org/2000/svg">
<path d="M59 29.5C59 45.7924 45.7924 59 29.5 59C13.2076 59 0 45.7924 0 29.5C0 13.2076 13.2076 0 29.5 0C45.7924 0 59 13.2076 59 29.5Z" fill="#302F2D"/>
<path d="M49 29.5C49 32.0608 48.4956 34.5965 47.5157 36.9623C46.5357 39.3282 45.0993 41.4778 43.2886 43.2886C41.4778 45.0993 39.3282 46.5357 36.9623 47.5157C34.5965 48.4956 32.0608 49 29.5 49C26.9392 49 24.4035 48.4956 22.0377 47.5157C19.6718 46.5357 17.5222 45.0993 15.7114 43.2886C13.9007 41.4778 12.4643 39.3282 11.4843 36.9623C10.5044 34.5965 10 32.0608 10 29.5L49 29.5Z" fill="#3C8CE1"/>
<path d="M49 29.5C49 26.9392 48.4956 24.4035 47.5157 22.0377C46.5357 19.6718 45.0993 17.5222 43.2886 15.7114C41.4778 13.9007 39.3282 12.4643 36.9623 11.4843C34.5965 10.5044 32.0608 10 29.5 10C26.9392 10 24.4035 10.5044 22.0377 11.4843C19.6718 12.4643 17.5222 13.9007 15.7114 15.7114C13.9007 17.5222 12.4643 19.6718 11.4843 22.0377C10.5044 24.4035 10 26.9392 10 29.5L49 29.5Z" fill="#5E9EF5"/>
<path d="M38 29.5C38 24.8125 36.4711 20.4838 33.8926 17L31.1544 19.0833C33.2993 21.9769 34.5772 25.588 34.5772 29.5C34.5772 33.412 33.2993 37.0231 31.1544 39.9167L33.8926 42C36.4711 38.5162 38 34.1875 38 29.5ZM31.1544 29.5C31.1544 26.375 30.1389 23.4931 28.4161 21.1667L25.6779 23.25C26.9671 24.9861 27.7315 27.1505 27.7315 29.5C27.7315 31.8495 26.9671 34.0139 25.6779 35.75L28.4161 37.8333C30.1389 35.5069 31.1544 32.625 31.1544 29.5Z" fill="#1B1B1B"/>
<path d="M22.9396 25.3333C23.801 26.4965 24.3087 27.9375 24.3087 29.5C24.3087 31.0625 23.801 32.5035 22.9396 33.6667L21 32.625C21.6446 31.7569 22.0268 30.6748 22.0268 29.5C22.0268 28.3252 21.6446 27.2431 21 26.375L22.9396 25.3333Z" fill="#1B1B1B"/>
</svg>
